<?xml version="1.0" encoding="UTF-8" standalone="no"?>
<svg
   xmlns:dc="http://purl.org/dc/elements/1.1/"
   xmlns:cc="http://creativecommons.org/ns#"
   xmlns:rdf="http://www.w3.org/1999/02/22-rdf-syntax-ns#"
   xmlns:svg="http://www.w3.org/2000/svg"
   xmlns="http://www.w3.org/2000/svg"
   xmlns:sodipodi="http://sodipodi.sourceforge.net/DTD/sodipodi-0.dtd"
   xmlns:inkscape="http://www.inkscape.org/namespaces/inkscape"
   version="1.1"
   id="Capa_1"
   x="0px"
   y="0px"
   viewBox="0 0 512.001 512.001"
   style="enable-background:new 0 0 512.001 512.001;"
   xml:space="preserve"
   sodipodi:docname="016-switch.svg"
   inkscape:version="1.0.2 (e86c870879, 2021-01-15)"><metadata
   id="metadata67"><rdf:RDF><cc:Work
       rdf:about=""><dc:format>image/svg+xml</dc:format><dc:type
         rdf:resource="http://purl.org/dc/dcmitype/StillImage" /><dc:title></dc:title></cc:Work></rdf:RDF></metadata><defs
   id="defs65" /><sodipodi:namedview
   pagecolor="#ffffff"
   bordercolor="#666666"
   borderopacity="1"
   objecttolerance="10"
   gridtolerance="10"
   guidetolerance="10"
   inkscape:pageopacity="0"
   inkscape:pageshadow="2"
   inkscape:window-width="1417"
   inkscape:window-height="977"
   id="namedview63"
   showgrid="false"
   inkscape:zoom="1.1821919"
   inkscape:cx="263.99571"
   inkscape:cy="212.01534"
   inkscape:window-x="180"
   inkscape:window-y="51"
   inkscape:window-maximized="0"
   inkscape:current-layer="Capa_1"
   showguides="true"
   inkscape:guide-bbox="true"
   inkscape:object-paths="false"
   inkscape:snap-smooth-nodes="true" />






<path
   style="fill:#6e6b87"
   d="M 473.368,391.1675 H 38.632 c -2.276,0 -4.121,-1.845 -4.121,-4.121 v -77.264 h 442.978 v 77.264 c 0,2.276 -1.845,4.121 -4.121,4.121 z"
   id="path2" /><path
   style="fill:#625f78"
   d="m 473.368,391.1675 h -26.785 v -81.384 h 30.905 v 77.264 c 10e-4,2.275 -1.844,4.12 -4.12,4.12 z"
   id="path4" /><path
   style="fill:#5556ec;fill-opacity:1"
   d="M 477.489,243.8515 H 34.511 V 124.95447 c 0,-2.276 1.845,-4.121 4.121,-4.121 h 434.736 c 2.276,0 4.121,1.845 4.121,4.121 z"
   id="path6"
   sodipodi:nodetypes="ccssssc" /><path
   style="fill:#2c38bd;fill-opacity:1"
   d="M 477.489,243.8515 H 446.584 V 120.83447 h 26.785 c 2.276,0 4.121,1.845 4.121,4.121 V 243.8515 Z"
   id="path8"
   sodipodi:nodetypes="cccssccc" /><path
   style="fill:#cbdae0"
   d="M 507.879,360.2625 H 4.121 c -2.276,0 -4.121,-1.845 -4.121,-4.121 v -158.648 c 0,-2.276 1.845,-4.121 4.121,-4.121 H 507.88 c 2.276,0 4.121,1.845 4.121,4.121 v 158.648 c -10e-4,2.276 -1.846,4.121 -4.122,4.121 z"
   id="path10" /><path
   style="fill:#a8b5ba"
   d="m 507.879,360.2625 h -26.785 v -166.89 h 26.785 c 2.276,0 4.121,1.845 4.121,4.121 v 158.648 c 0,2.276 -1.845,4.121 -4.121,4.121 z"
   id="path12" /><g
   id="g30"
   transform="translate(0,20.816503)">
	<path
   style="fill:#444b66"
   d="m 290.068,227.035 v 39.37 c 0,2.209 -1.791,4 -4,4 h -5.657 c -2.209,0 -4,1.791 -4,4 v 10.562 c 0,2.209 -1.791,4 -4,4 h -34.738 c -2.209,0 -4,-1.791 -4,-4 v -10.562 c 0,-2.209 -1.791,-4 -4,-4 h -5.657 c -2.209,0 -4,-1.791 -4,-4 v -39.37 c 0,-2.209 1.791,-4 4,-4 h 62.052 c 2.209,0 4,1.791 4,4 z"
   id="path14" />
	<path
   style="fill:#444b66"
   d="m 194.455,227.035 v 39.37 c 0,2.209 -1.791,4 -4,4 h -5.657 c -2.209,0 -4,1.791 -4,4 v 10.562 c 0,2.209 -1.791,4 -4,4 h -34.737 c -2.209,0 -4,-1.791 -4,-4 v -10.562 c 0,-2.209 -1.791,-4 -4,-4 h -5.657 c -2.209,0 -4,-1.791 -4,-4 v -39.37 c 0,-2.209 1.791,-4 4,-4 h 62.052 c 2.209,0 3.999,1.791 3.999,4 z"
   id="path16" />
	<path
   style="fill:#444b66"
   d="m 385.581,227.035 v 39.37 c 0,2.209 -1.791,4 -4,4 h -5.657 c -2.209,0 -4,1.791 -4,4 v 10.562 c 0,2.209 -1.791,4 -4,4 h -34.737 c -2.209,0 -4,-1.791 -4,-4 v -10.562 c 0,-2.209 -1.791,-4 -4,-4 h -5.657 c -2.209,0 -4,-1.791 -4,-4 v -39.37 c 0,-2.209 1.791,-4 4,-4 h 62.052 c 2.208,0 3.999,1.791 3.999,4 z"
   id="path18" />
	<path
   style="fill:#444b66"
   d="m 481.095,227.035 v 39.37 c 0,2.209 -1.791,4 -4,4 h -5.657 c -2.209,0 -4,1.791 -4,4 v 10.562 c 0,2.209 -1.791,4 -4,4 H 428.7 c -2.209,0 -4,-1.791 -4,-4 v -10.562 c 0,-2.209 -1.791,-4 -4,-4 h -5.657 c -2.209,0 -4,-1.791 -4,-4 v -39.37 c 0,-2.209 1.791,-4 4,-4 h 62.052 c 2.209,0 4,1.791 4,4 z"
   id="path20" />
	<path
   style="fill:#444b66"
   d="M 93.128,232.022 H 34.79 c -4.142,0 -7.5,-3.358 -7.5,-7.5 0,-4.142 3.358,-7.5 7.5,-7.5 h 58.338 c 4.142,0 7.5,3.358 7.5,7.5 0,4.142 -3.358,7.5 -7.5,7.5 z"
   id="path22" />
	<path
   style="fill:#444b66"
   d="M 93.128,253.008 H 34.79 c -4.142,0 -7.5,-3.358 -7.5,-7.5 0,-4.142 3.358,-7.5 7.5,-7.5 h 58.338 c 4.142,0 7.5,3.358 7.5,7.5 0,4.142 -3.358,7.5 -7.5,7.5 z"
   id="path24" />
	<path
   style="fill:#444b66"
   d="M 93.128,273.994 H 34.79 c -4.142,0 -7.5,-3.358 -7.5,-7.5 0,-4.142 3.358,-7.5 7.5,-7.5 h 58.338 c 4.142,0 7.5,3.358 7.5,7.5 0,4.142 -3.358,7.5 -7.5,7.5 z"
   id="path26" />
	<path
   style="fill:#444b66"
   d="M 66.915363,294.979 H 34.79 c -4.142,0 -7.5,-3.358 -7.5,-7.5 0,-4.142 3.358,-7.5 7.5,-7.5 h 32.125363 c 4.142,0 7.5,3.358 7.5,7.5 0,4.142 -3.358,7.5 -7.5,7.5 z"
   id="path28"
   sodipodi:nodetypes="sssssss" />
<path
   style="fill:#df6c66;fill-opacity:1"
   d="m 93.127995,294.979 h -0.114824 c -4.142,0 -7.5,-3.358 -7.5,-7.5 0,-4.142 3.358,-7.5 7.5,-7.5 h 0.114824 c 4.142,0 7.500005,3.358 7.500005,7.5 0,4.142 -3.358005,7.5 -7.500005,7.5 z"
   id="path978"
   sodipodi:nodetypes="sssssss" /></g>
<g
   id="g32">
</g>
<g
   id="g34">
</g>
<g
   id="g36">
</g>
<g
   id="g38">
</g>
<g
   id="g40">
</g>
<g
   id="g42">
</g>
<g
   id="g44">
</g>
<g
   id="g46">
</g>
<g
   id="g48">
</g>
<g
   id="g50">
</g>
<g
   id="g52">
</g>
<g
   id="g54">
</g>
<g
   id="g56">
</g>
<g
   id="g58">
</g>
<g
   id="g60">
</g>
</svg>
