<svg id="Capa_1" enable-background="new 0 0 483.254 483.254" height="512" viewBox="0 0 483.254 483.254" width="512" xmlns="http://www.w3.org/2000/svg"><g><g id="icon_94_"><path d="m430.538 74.492v408.762h-377.822v-483.254h303.331z" fill="#eeefee"/><g fill="#dbd8dd"><path d="m430.538 74.492h-74.491v-74.492z"/><path d="m201.835 37.246h124.409v12.565h-124.409z"/><path d="m86.037 37.246h81.422v12.565h-81.422z"/><path d="m86.037 87.322h240.207v12.565h-240.207z"/><path d="m270.593 137.403h129.654v12.565h-129.654z"/><path d="m86.037 137.403h159.014v12.565h-159.014z"/><path d="m86.037 187.479h314.21v12.565h-314.21z"/><path d="m83.008 237.372h81.505v12.565h-81.505z"/><path d="m196.926 237.372h203.32v12.565h-203.32z"/><path d="m83.008 287.448h317.239v12.565h-317.239z"/><path d="m83.008 337.53h206.249v12.565h-206.249z"/><path d="m311.846 337.53h88.4v12.565h-88.4z"/><path d="m83.008 387.605h74.627v12.565h-74.627z"/><path d="m184.155 387.605h216.091v12.565h-216.091z"/><path d="m83.008 437.681h189.548v12.565h-189.548z"/><path d="m300.06 437.681h100.187v12.565h-100.187z"/></g></g></g></svg>