<svg id="Capa_1" enable-background="new 0 0 483.254 483.254" height="512" viewBox="0 0 483.254 483.254" width="512" xmlns="http://www.w3.org/2000/svg"><g><g id="icon_6_"><path d="m462.575 96.062v363.619c0 12.967-10.512 23.479-23.479 23.479h-40.576v-150.775c0-23.412-18.979-42.391-42.391-42.391h-229.004c-23.412 0-42.391 18.979-42.391 42.391v150.811h-40.575c-12.967 0-23.479-10.512-23.479-23.479v-436.238c0-12.967 10.512-23.479 23.479-23.479h332.933z" fill="#575b6d"/><path d="m84.693 311.198.041 172.056h313.786v-172.056c0-11.717-9.499-21.216-21.216-21.216h-271.418c-11.708.013-21.193 9.508-21.193 21.216z" fill="#dbd8dd"/><path d="m84.693 0v111.431c0 11.717 9.499 21.216 21.216 21.216h228.75c11.717 0 21.216-9.499 21.216-21.216v-111.431z" fill="#dbd8dd"/><g fill="#bbbbcd"><path d="m294.603 25.224h31.901v76.566h-31.901z"/><path d="m114.997 320.109h253.243v13.908h-253.243z"/><path d="m114.997 359.818h253.243v13.908h-253.243z"/><path d="m114.997 399.528h253.243v13.908h-253.243z"/><path d="m114.997 439.231h253.243v13.908h-253.243z"/></g></g></g></svg>