<?xml version="1.0" encoding="iso-8859-1"?>
<!-- Generator: Adobe Illustrator 19.0.0, SVG Export Plug-In . SVG Version: 6.00 Build 0)  -->
<svg version="1.1" id="Capa_1" xmlns="http://www.w3.org/2000/svg" xmlns:xlink="http://www.w3.org/1999/xlink" x="0px" y="0px"
	 viewBox="0 0 512 512" style="enable-background:new 0 0 512 512;" xml:space="preserve">
<path style="fill:#6E6B87;" d="M92.201,310.578H61.296V34.453C61.296,25.918,68.214,19,76.748,19l0,0
	c8.534,0,15.453,6.918,15.453,15.453C92.201,34.453,92.201,310.578,92.201,310.578z"/>
<path style="fill:#EC5569;" d="M107.654,362.593H45.843V282.67c0-2.209,1.791-4,4-4h53.811c2.209,0,4,1.791,4,4V362.593z"/>
<path style="fill:#BD2C30;" d="M107.654,362.593H76.748V278.67h26.905c2.209,0,4,1.791,4,4L107.654,362.593L107.654,362.593z"/>
<path style="fill:#6E6B87;" d="M450.704,310.578h-30.905V34.457c0-8.536,6.918-15.457,15.453-15.457l0,0
	c8.534,0,15.453,6.92,15.453,15.457v276.121H450.704z"/>
<path style="fill:#EC5569;" d="M466.157,362.593h-61.811V282.67c0-2.209,1.791-4,4-4h53.811c2.209,0,4,1.791,4,4V362.593z"/>
<path style="fill:#BD2C30;" d="M466.157,362.593h-30.905V278.67h26.905c2.209,0,4,1.791,4,4V362.593z"/>
<g>
	<path style="fill:#6E6B87;" d="M79.002,493H46.038c-4.552,0-8.242-3.69-8.242-8.242v-46.886h49.449v46.886
		C87.244,489.31,83.554,493,79.002,493z"/>
	<path style="fill:#6E6B87;" d="M465.962,493h-32.964c-4.552,0-8.242-3.69-8.242-8.242v-46.886h49.449v46.886
		C474.205,489.31,470.514,493,465.962,493z"/>
</g>
<path style="fill:#CBDAE0;" d="M508,462.087H4c-2.209,0-4-1.791-4-4V338.313c0-2.209,1.791-4,4-4h504c2.209,0,4,1.791,4,4v119.774
	C512,460.296,510.209,462.087,508,462.087z"/>
<path style="fill:#A8B5BA;" d="M508,462.087h-26.905V334.313H508c2.209,0,4,1.791,4,4v119.774
	C512,460.296,510.209,462.087,508,462.087z"/>
<g>
	<path style="fill:#444B66;" d="M359.632,368.702v39.381c0,2.209-1.791,4-4,4h-5.657c-2.209,0-4,1.791-4,4v10.567
		c0,2.209-1.791,4-4,4h-34.737c-2.209,0-4-1.791-4-4v-10.567c0-2.209-1.791-4-4-4h-5.657c-2.209,0-4-1.791-4-4v-39.381
		c0-2.209,1.791-4,4-4h62.052C357.841,364.702,359.632,366.493,359.632,368.702z"/>
	<path style="fill:#444B66;" d="M456.813,368.702v39.381c0,2.209-1.791,4-4,4h-5.657c-2.209,0-4,1.791-4,4v10.567
		c0,2.209-1.791,4-4,4h-34.737c-2.209,0-4-1.791-4-4v-10.567c0-2.209-1.791-4-4-4h-5.657c-2.209,0-4-1.791-4-4v-39.381
		c0-2.209,1.791-4,4-4h62.052C455.022,364.702,456.813,366.493,456.813,368.702z"/>
</g>
<g>
	<circle style="fill:#FAD87C;" cx="70.64" cy="398.2" r="15.453"/>
	<circle style="fill:#FAD87C;" cx="133.85" cy="398.2" r="15.453"/>
</g>
<g>
	<path style="fill:#444B66;" d="M182.732,382.506h61.811c4.142,0,7.5-3.358,7.5-7.5s-3.358-7.5-7.5-7.5h-61.811
		c-4.142,0-7.5,3.358-7.5,7.5S178.59,382.506,182.732,382.506z"/>
	<path style="fill:#444B66;" d="M244.543,390.176h-61.811c-4.142,0-7.5,3.358-7.5,7.5s3.358,7.5,7.5,7.5h61.811
		c4.142,0,7.5-3.358,7.5-7.5S248.686,390.176,244.543,390.176z"/>
	<path style="fill:#444B66;" d="M244.543,412.846h-61.811c-4.142,0-7.5,3.358-7.5,7.5s3.358,7.5,7.5,7.5h61.811
		c4.142,0,7.5-3.358,7.5-7.5S248.686,412.846,244.543,412.846z"/>
</g>
<g>
</g>
<g>
</g>
<g>
</g>
<g>
</g>
<g>
</g>
<g>
</g>
<g>
</g>
<g>
</g>
<g>
</g>
<g>
</g>
<g>
</g>
<g>
</g>
<g>
</g>
<g>
</g>
<g>
</g>
</svg>
